<?xml version="1.0" encoding="utf-8"?>
<!-- Generator: Adobe Illustrator 20.1.0, SVG Export Plug-In . SVG Version: 6.00 Build 0)  -->
<svg version="1.1" id="Capa_1" xmlns="http://www.w3.org/2000/svg" xmlns:xlink="http://www.w3.org/1999/xlink" x="0px" y="0px"
	 viewBox="0 0 512 512" style="enable-background:new 0 0 512 512;" xml:space="preserve">
<style type="text/css">
	.st0{fill:#50575B;}
	.st1{fill:#3C92CB;}
</style>
<path class="st0" d="M256,512C114.8,512,0,397.2,0,256S114.8,0,256,0s256,114.8,256,256S397.2,512,256,512z M256,32
	C132.5,32,32,132.5,32,256s100.5,224,224,224s224-100.5,224-224S379.5,32,256,32z"/>
<g>
	<g>
		<path class="st1" d="M197.6,427.8c-1.7,0-3.5-0.4-5-1.2c-4.7-2.1-7.4-7.3-6.3-12.4l0-0.2l43.2-130.5h-57.7c-1.6,0-3.2-0.4-4.6-1
			c-2.7-1.2-4.7-3.5-5.8-6.2c-1-2.8-0.9-5.8,0.3-8.5L244,95.4c1.8-3.8,5.7-6.4,10-6.4h86.1c1.9,0,3.8,0.5,5.5,1.5
			c2.6,1.5,4.4,3.9,5.2,6.7c0.8,2.9,0.4,5.8-1.1,8.4l-58.7,102.5h56.8c2.4,0,4.7,0.8,6.7,2.2c2.4,1.8,3.9,4.4,4.3,7.3
			c0.4,2.9-0.3,5.9-2.1,8.2L206.4,423.4C204.3,426.1,201,427.8,197.6,427.8C197.6,427.8,197.6,427.8,197.6,427.8z M245.6,260.7
			c1.2,0,2.4,0.2,3.5,0.6c5.8,2,8.9,8.3,7,14.1L229,357.5l96.5-127.3h-53.7c-1.9,0-3.8-0.5-5.5-1.5c-2.6-1.5-4.4-3.9-5.2-6.7
			c-0.8-2.9-0.4-5.8,1.1-8.4l58.9-103.3H261L190,260.7H245.6z"/>
		<path class="st1" d="M352.6,212.7c-1.4-1.1-3.1-1.6-4.9-1.6h-62l61.3-107c2.2-3.9,0.9-8.8-3-11.1c-1.2-0.7-2.6-1.1-4-1.1H254
			c-3.1,0-6,1.9-7.3,4.7L164.6,269c-1.9,4.1-0.1,8.9,3.9,10.7c1,0.5,2.2,0.7,3.3,0.7h61.8l-44.5,134.3c-0.8,3.8,1.2,7.5,4.7,9.1
			c3.5,1.8,7.8,0.9,10.2-2.3L354.2,224C356.9,220.4,356.1,215.4,352.6,212.7z M220.5,373.7l32.7-99.3c1.4-4.2-0.8-8.8-5.1-10.3
			c-0.8-0.3-1.7-0.4-2.5-0.4h-60.4L259,107.4h67.3l-61.5,107.8c-2.2,3.9-0.9,8.8,3,11.1c1.2,0.7,2.6,1.1,4,1.1h59.7L220.5,373.7z"/>
	</g>
</g>
</svg>
